<svg xmlns="http://www.w3.org/2000/svg" width="60" height="59" viewBox="0 0 60 59" fill="currentColor">
  <path fill-rule="evenodd"
    d="m42.448 43.221 3.065 8.373-8.454 3.086 1.263 3.455 8.46-3.05 3.512-1.259-4.37-11.864-3.476 1.26zM13.235 23.787 21.199 6.96 17.62 5.334l1.5-3.149 6.574 3.033-1.114 2.348.075.039c1.696-1.441 4.31-1.514 6.268-.607 2.348 1.063 3.307 2.616 2.885 5.153 1.732-1.324 4.19-1.892 6.268-.946 5.344 2.465 3.462 6.444 2.349 8.754L35.73 34.093l-3.191-1.44 6.538-13.757c.733-1.514 1.772-4.09-.808-5.265-1.5-.684-4.23-.834-5.69 2.271L26.08 29.66l-3.191-1.437 6.538-13.756c.693-1.553 1.767-4.095-.848-5.27-1.46-.679-4.19-.834-5.65 2.276L16.39 25.229l-3.156-1.44zM41.912 37.42 55.578 7.17l-3.903-1.862 1.437-3.123L60 5.498 44.936 38.901l-3.024-1.48zM0 28.683l3.353 1.477L17.206 1.522 13.853 0z">
  </path>
</svg>